# xmcd
#
# Track frame offsets:
#	150
#	2718
#	18709
#	37759
#	52983
#	73487
#	88739
#	103018
#	119111
#
# Disc length: 1803 seconds
#
# Revision: 1
# Processed by: cddbd v1.5.2PL0 Copyright (c) Steve Scherf et al.
# Submitted via: EasyCDDAExtractor 2010.6.0.0
#
DISCID=79070909
DTITLE=Laiska Leppone - Mes que un slut
DYEAR=2012
DGENRE=hip-Hop
TTITLE0=Intro
TTITLE1=Sata kaljaa feat. Timo Kotipoltto
TTITLE2=Röis
TTITLE3=Kotimies feat. Warren Kaa
TTITLE4=Violetti Cadillac
TTITLE5=JackSkunk feat. Poikkeus
TTITLE6=Oven takana
TTITLE7=Hyvää feat. Timo Kotipoltto
TTITLE8=Lyyrinen kukka feat. Chydeone
EXTD=
EXTT0=
EXTT1=
EXTT2=
EXTT3=
EXTT4=
EXTT5=
EXTT6=
EXTT7=
EXTT8=
PLAYORDER=
